<?xml version='1.0' encoding='UTF-8'?>
<svg width="39mm" height="39mm" version="1.1" viewBox="0 0 39 39" fill_color="black" back_color="white" xmlns="http://www.w3.org/2000/svg"><path d="M5,5H6V6H5zM6,5H7V6H6zM7,5H8V6H7zM8,5H9V6H8zM9,5H10V6H9zM10,5H11V6H10zM11,5H12V6H11zM13,5H14V6H13zM15,5H16V6H15zM17,5H18V6H17zM18,5H19V6H18zM19,5H20V6H19zM20,5H21V6H20zM22,5H23V6H22zM23,5H24V6H23zM27,5H28V6H27zM28,5H29V6H28zM29,5H30V6H29zM30,5H31V6H30zM31,5H32V6H31zM32,5H33V6H32zM33,5H34V6H33zM5,6H6V7H5zM11,6H12V7H11zM15,6H16V7H15zM16,6H17V7H16zM17,6H18V7H17zM20,6H21V7H20zM27,6H28V7H27zM33,6H34V7H33zM5,7H6V8H5zM7,7H8V8H7zM8,7H9V8H8zM9,7H10V8H9zM11,7H12V8H11zM13,7H14V8H13zM14,7H15V8H14zM18,7H19V8H18zM22,7H23V8H22zM24,7H25V8H24zM27,7H28V8H27zM29,7H30V8H29zM30,7H31V8H30zM31,7H32V8H31zM33,7H34V8H33zM5,8H6V9H5zM7,8H8V9H7zM8,8H9V9H8zM9,8H10V9H9zM11,8H12V9H11zM14,8H15V9H14zM16,8H17V9H16zM17,8H18V9H17zM20,8H21V9H20zM22,8H23V9H22zM23,8H24V9H23zM25,8H26V9H25zM27,8H28V9H27zM29,8H30V9H29zM30,8H31V9H30zM31,8H32V9H31zM33,8H34V9H33zM5,9H6V10H5zM7,9H8V10H7zM8,9H9V10H8zM9,9H10V10H9zM11,9H12V10H11zM14,9H15V10H14zM15,9H16V10H15zM16,9H17V10H16zM17,9H18V10H17zM20,9H21V10H20zM21,9H22V10H21zM22,9H23V10H22zM23,9H24V10H23zM27,9H28V10H27zM29,9H30V10H29zM30,9H31V10H30zM31,9H32V10H31zM33,9H34V10H33zM5,10H6V11H5zM11,10H12V11H11zM13,10H14V11H13zM16,10H17V11H16zM18,10H19V11H18zM19,10H20V11H19zM21,10H22V11H21zM22,10H23V11H22zM23,10H24V11H23zM25,10H26V11H25zM27,10H28V11H27zM33,10H34V11H33zM5,11H6V12H5zM6,11H7V12H6zM7,11H8V12H7zM8,11H9V12H8zM9,11H10V12H9zM10,11H11V12H10zM11,11H12V12H11zM13,11H14V12H13zM15,11H16V12H15zM17,11H18V12H17zM19,11H20V12H19zM21,11H22V12H21zM23,11H24V12H23zM25,11H26V12H25zM27,11H28V12H27zM28,11H29V12H28zM29,11H30V12H29zM30,11H31V12H30zM31,11H32V12H31zM32,11H33V12H32zM33,11H34V12H33zM18,12H19V13H18zM20,12H21V13H20zM24,12H25V13H24zM5,13H6V14H5zM7,13H8V14H7zM11,13H12V14H11zM12,13H13V14H12zM14,13H15V14H14zM18,13H19V14H18zM20,13H21V14H20zM24,13H25V14H24zM25,13H26V14H25zM28,13H29V14H28zM31,13H32V14H31zM33,13H34V14H33zM5,14H6V15H5zM8,14H9V15H8zM9,14H10V15H9zM10,14H11V15H10zM12,14H13V15H12zM13,14H14V15H13zM14,14H15V15H14zM15,14H16V15H15zM17,14H18V15H17zM20,14H21V15H20zM21,14H22V15H21zM22,14H23V15H22zM24,14H25V15H24zM25,14H26V15H25zM26,14H27V15H26zM27,14H28V15H27zM28,14H29V15H28zM32,14H33V15H32zM33,14H34V15H33zM5,15H6V16H5zM6,15H7V16H6zM8,15H9V16H8zM10,15H11V16H10zM11,15H12V16H11zM17,15H18V16H17zM18,15H19V16H18zM19,15H20V16H19zM20,15H21V16H20zM22,15H23V16H22zM24,15H25V16H24zM27,15H28V16H27zM28,15H29V16H28zM29,15H30V16H29zM30,15H31V16H30zM31,15H32V16H31zM33,15H34V16H33zM6,16H7V17H6zM7,16H8V17H7zM12,16H13V17H12zM13,16H14V17H13zM15,16H16V17H15zM17,16H18V17H17zM19,16H20V17H19zM21,16H22V17H21zM24,16H25V17H24zM25,16H26V17H25zM26,16H27V17H26zM29,16H30V17H29zM30,16H31V17H30zM5,17H6V18H5zM6,17H7V18H6zM8,17H9V18H8zM10,17H11V18H10zM11,17H12V18H11zM17,17H18V18H17zM18,17H19V18H18zM19,17H20V18H19zM21,17H22V18H21zM25,17H26V18H25zM27,17H28V18H27zM28,17H29V18H28zM33,17H34V18H33zM5,18H6V19H5zM7,18H8V19H7zM9,18H10V19H9zM10,18H11V19H10zM12,18H13V19H12zM15,18H16V19H15zM17,18H18V19H17zM18,18H19V19H18zM19,18H20V19H19zM20,18H21V19H20zM21,18H22V19H21zM22,18H23V19H22zM24,18H25V19H24zM25,18H26V19H25zM27,18H28V19H27zM28,18H29V19H28zM32,18H33V19H32zM33,18H34V19H33zM6,19H7V20H6zM9,19H10V20H9zM11,19H12V20H11zM12,19H13V20H12zM15,19H16V20H15zM20,19H21V20H20zM21,19H22V20H21zM24,19H25V20H24zM26,19H27V20H26zM27,19H28V20H27zM28,19H29V20H28zM29,19H30V20H29zM33,19H34V20H33zM6,20H7V21H6zM9,20H10V21H9zM10,20H11V21H10zM12,20H13V21H12zM14,20H15V21H14zM16,20H17V21H16zM17,20H18V21H17zM18,20H19V21H18zM23,20H24V21H23zM24,20H25V21H24zM25,20H26V21H25zM27,20H28V21H27zM28,20H29V21H28zM5,21H6V22H5zM6,21H7V22H6zM7,21H8V22H7zM11,21H12V22H11zM13,21H14V22H13zM14,21H15V22H14zM15,21H16V22H15zM16,21H17V22H16zM17,21H18V22H17zM18,21H19V22H18zM21,21H22V22H21zM25,21H26V22H25zM26,21H27V22H26zM27,21H28V22H27zM33,21H34V22H33zM9,22H10V23H9zM10,22H11V23H10zM14,22H15V23H14zM17,22H18V23H17zM20,22H21V23H20zM21,22H22V23H21zM23,22H24V23H23zM24,22H25V23H24zM27,22H28V23H27zM28,22H29V23H28zM31,22H32V23H31zM32,22H33V23H32zM33,22H34V23H33zM5,23H6V24H5zM6,23H7V24H6zM7,23H8V24H7zM8,23H9V24H8zM9,23H10V24H9zM11,23H12V24H11zM15,23H16V24H15zM16,23H17V24H16zM18,23H19V24H18zM19,23H20V24H19zM20,23H21V24H20zM21,23H22V24H21zM22,23H23V24H22zM23,23H24V24H23zM24,23H25V24H24zM29,23H30V24H29zM30,23H31V24H30zM33,23H34V24H33zM12,24H13V25H12zM13,24H14V25H13zM16,24H17V25H16zM17,24H18V25H17zM19,24H20V25H19zM21,24H22V25H21zM25,24H26V25H25zM27,24H28V25H27zM29,24H30V25H29zM5,25H6V26H5zM6,25H7V26H6zM7,25H8V26H7zM11,25H12V26H11zM12,25H13V26H12zM14,25H15V26H14zM17,25H18V26H17zM18,25H19V26H18zM19,25H20V26H19zM20,25H21V26H20zM23,25H24V26H23zM25,25H26V26H25zM26,25H27V26H26zM27,25H28V26H27zM28,25H29V26H28zM29,25H30V26H29zM30,25H31V26H30zM32,25H33V26H32zM13,26H14V27H13zM14,26H15V27H14zM18,26H19V27H18zM19,26H20V27H19zM20,26H21V27H20zM21,26H22V27H21zM22,26H23V27H22zM25,26H26V27H25zM29,26H30V27H29zM30,26H31V27H30zM31,26H32V27H31zM33,26H34V27H33zM5,27H6V28H5zM6,27H7V28H6zM7,27H8V28H7zM8,27H9V28H8zM9,27H10V28H9zM10,27H11V28H10zM11,27H12V28H11zM13,27H14V28H13zM15,27H16V28H15zM17,27H18V28H17zM20,27H21V28H20zM25,27H26V28H25zM27,27H28V28H27zM29,27H30V28H29zM33,27H34V28H33zM5,28H6V29H5zM11,28H12V29H11zM14,28H15V29H14zM15,28H16V29H15zM16,28H17V29H16zM18,28H19V29H18zM23,28H24V29H23zM24,28H25V29H24zM25,28H26V29H25zM29,28H30V29H29zM32,28H33V29H32zM33,28H34V29H33zM5,29H6V30H5zM7,29H8V30H7zM8,29H9V30H8zM9,29H10V30H9zM11,29H12V30H11zM14,29H15V30H14zM15,29H16V30H15zM17,29H18V30H17zM18,29H19V30H18zM24,29H25V30H24zM25,29H26V30H25zM26,29H27V30H26zM27,29H28V30H27zM28,29H29V30H28zM29,29H30V30H29zM30,29H31V30H30zM32,29H33V30H32zM33,29H34V30H33zM5,30H6V31H5zM7,30H8V31H7zM8,30H9V31H8zM9,30H10V31H9zM11,30H12V31H11zM15,30H16V31H15zM18,30H19V31H18zM20,30H21V31H20zM21,30H22V31H21zM23,30H24V31H23zM24,30H25V31H24zM25,30H26V31H25zM26,30H27V31H26zM29,30H30V31H29zM30,30H31V31H30zM31,30H32V31H31zM33,30H34V31H33zM5,31H6V32H5zM7,31H8V32H7zM8,31H9V32H8zM9,31H10V32H9zM11,31H12V32H11zM13,31H14V32H13zM14,31H15V32H14zM18,31H19V32H18zM20,31H21V32H20zM21,31H22V32H21zM23,31H24V32H23zM26,31H27V32H26zM29,31H30V32H29zM32,31H33V32H32zM33,31H34V32H33zM5,32H6V33H5zM11,32H12V33H11zM14,32H15V33H14zM15,32H16V33H15zM19,32H20V33H19zM25,32H26V33H25zM28,32H29V33H28zM29,32H30V33H29zM30,32H31V33H30zM5,33H6V34H5zM6,33H7V34H6zM7,33H8V34H7zM8,33H9V34H8zM9,33H10V34H9zM10,33H11V34H10zM11,33H12V34H11zM13,33H14V34H13zM14,33H15V34H14zM15,33H16V34H15zM16,33H17V34H16zM17,33H18V34H17zM21,33H22V34H21zM25,33H26V34H25zM29,33H30V34H29zM30,33H31V34H30zM33,33H34V34H33z" id="qr-path" fill="#000000" fill-opacity="1" fill-rule="nonzero" stroke="none" /></svg>